<svg xmlns="http://www.w3.org/2000/svg" version="1.1" xmlns:xlink="http://www.w3.org/1999/xlink" xmlns:svgjs="http://svgjs.dev/svgjs" width="2000" height="934" viewBox="0 0 2000 934"><g transform="matrix(1,0,0,1,-1.2121212121212466,0.023727761641850975)"><svg viewBox="0 0 396 185" data-background-color="#ffffff" preserveAspectRatio="xMidYMid meet" height="934" width="2000" xmlns="http://www.w3.org/2000/svg" xmlns:xlink="http://www.w3.org/1999/xlink"><g id="tight-bounds" transform="matrix(1,0,0,1,0.2400000000000091,-0.004699824308076472)"><svg viewBox="0 0 395.52 185.00939964861615" height="185.00939964861615" width="395.52"><g><svg viewBox="0 0 789.05727197177 369.0913536" height="185.00939964861615" width="395.52"><g transform="matrix(1,0,0,1,0,132.7701503344337)"><svg viewBox="0 0 395.52 103.5510529311326" height="103.5510529311326" width="395.52"><g id="textblocktransform"><svg viewBox="0 0 395.52 103.5510529311326" height="103.5510529311326" width="395.52" id="textblock"><g><svg viewBox="0 0 395.52 103.5510529311326" height="103.5510529311326" width="395.52"><g transform="matrix(1,0,0,1,0,0)"><svg width="395.52" viewBox="3.3 -35.5 178.67999999999998 46" height="103.5510529311326" data-palette-color="#13b0eb"><g class="wordmark-text-0" data-fill-palette-color="primary" id="text-0"><path d="M21.35-1.15Q16.9 0.5 13.05 0.5L13.05 0.5Q8.7 0.5 6-1.8 3.3-4.1 3.3-9.15L3.3-9.15 3.3-25.2Q3.3-29 4.38-30.95 5.45-32.9 7.65-34.25L7.65-34.25Q9.85-35.5 13.05-35.5L13.05-35.5Q16.95-35.5 20.1-33.85L20.1-33.85 19.3-31.95Q16.45-33 13.9-33L13.9-33Q10.85-33 8.47-31.5 6.1-30 6.1-25.65L6.1-25.65 6.1-9.25Q6.1-5.8 7.9-3.93 9.7-2.05 13.3-2.05L13.3-2.05Q16.45-2.05 20.75-3.5L20.75-3.5 21.35-1.15ZM44.35-9.2Q44.35-5 42.05-2.25 39.75 0.5 35.1 0.5L35.1 0.5Q30.45 0.5 28.07-2.27 25.7-5.05 25.7-9.2L25.7-9.2 25.7-15.8Q25.7-20.55 28.12-23.08 30.55-25.6 35.1-25.6L35.1-25.6Q39.45-25.6 41.9-22.98 44.35-20.35 44.35-15.8L44.35-15.8 44.35-9.2ZM41.55-15.8Q41.55-19.55 39.82-21.3 38.1-23.05 35.1-23.05L35.1-23.05Q32-23.05 30.25-21.3 28.5-19.55 28.5-15.8L28.5-15.8 28.5-8.7Q28.5-5.7 30.27-3.85 32.05-2 35.1-2L35.1-2Q38.2-2 39.87-3.83 41.55-5.65 41.55-8.7L41.55-8.7 41.55-15.8ZM64.9 0L64.9-17.15Q64.9-20.2 63.12-21.58 61.35-22.95 58.55-22.95L58.55-22.95Q56.85-22.95 55.1-22.48 53.35-22 52-21.25L52-21.25 52 0 49.2 0 49.2-25.05 52-25.05 51.8-23.35Q53-24.4 54.85-24.93 56.7-25.45 58.7-25.45L58.7-25.45Q61.45-25.45 63.4-24.55L63.4-24.55Q65.4-23.65 66.52-21.85 67.65-20.05 67.65-17.3L67.65-17.3 67.65 0 64.9 0ZM89.89 0L89.89-17.15Q89.89-20.2 88.12-21.58 86.34-22.95 83.54-22.95L83.54-22.95Q81.84-22.95 80.09-22.48 78.34-22 76.99-21.25L76.99-21.25 76.99 0 74.19 0 74.19-25.05 76.99-25.05 76.79-23.35Q77.99-24.4 79.84-24.93 81.69-25.45 83.69-25.45L83.69-25.45Q86.44-25.45 88.39-24.55L88.39-24.55Q90.39-23.65 91.52-21.85 92.64-20.05 92.64-17.3L92.64-17.3 92.64 0 89.89 0ZM114.49-1.75Q112.69-0.6 110.39 0 108.09 0.6 105.79 0.6L105.79 0.6Q102.09 0.6 99.92-1.23 97.74-3.05 97.74-6.7L97.74-6.7 97.74-16.95Q97.74-21 100.27-23.25 102.79-25.5 106.94-25.5L106.94-25.5Q111.09-25.5 113.42-23.28 115.74-21.05 115.74-17.1L115.74-17.1 115.74-10.6 100.54-9.75 100.54-6.7Q100.54-4.3 102.09-3.1 103.64-1.9 106.14-1.9L106.14-1.9Q109.64-1.9 113.39-3.9L113.39-3.9 114.49-1.75ZM112.94-17.45Q112.94-20.55 110.99-21.83 109.04-23.1 106.89-23.1L106.89-23.1Q104.14-23.1 102.34-21.6 100.54-20.1 100.54-16.9L100.54-16.9 100.54-12.5 112.94-13.1 112.94-17.45ZM135.59-0.3Q132.49 0.5 129.59 0.5L129.59 0.5Q126.89 0.5 125.09-0.1L125.09-0.1Q122.14-1.1 120.81-3.18 119.49-5.25 119.49-9L119.49-9 119.49-15.4Q119.49-20.35 122.09-22.93 124.69-25.5 128.79-25.5L128.79-25.5Q132.04-25.5 135.49-23.9L135.49-23.9 134.69-21.85Q131.84-23 129.19-23L129.19-23Q126.09-23 124.19-21.23 122.29-19.45 122.29-15.7L122.29-15.7 122.29-8.45Q122.29-5 124.36-3.45 126.44-1.9 129.89-1.9L129.89-1.9Q132.14-1.9 134.99-2.55L134.99-2.55 135.59-0.3ZM144.34 0.65Q141.53-0.15 140.28-1.9 139.03-3.65 139.03-6.6L139.03-6.6 139.03-35 141.84-35 141.84-25.05 147.84-25.05 146.64-22.4 141.84-22.4 141.84-6.6Q141.84-2.6 145.14-1.5L145.14-1.5 144.34 0.65ZM152.88 0L152.88-35 155.68-35 155.68 0 152.88 0ZM174.28 8.35Q177.63 7.1 177.63 3.15L177.63 3.15 177.63-2.45Q176.68-0.85 174.78-0.13 172.88 0.6 170.68 0.6L170.68 0.6Q166.28 0.6 163.91-1.78 161.53-4.15 161.53-8.8L161.53-8.8 161.53-25.05 164.23-25.05 164.23-8.3Q164.23-5.1 165.98-3.53 167.73-1.95 170.68-1.95L170.68-1.95Q173.78-1.95 175.68-3.5 177.58-5.05 177.58-8.3L177.58-8.3 177.58-18.15Q177.58-20.55 177.73-21.73 177.88-22.9 178.66-23.93 179.43-24.95 181.23-25.5L181.23-25.5 181.98-23.6Q180.28-22.85 180.28-20.1L180.28-20.1 180.28 3.05Q180.28 6.1 179.08 7.85 177.88 9.6 175.03 10.5L175.03 10.5 174.28 8.35Z" fill="#13b0eb" data-fill-palette-color="primary"></path></g></svg></g></svg></g></svg></g></svg></g><g transform="matrix(1,0,0,1,419.96591837177004,0)"><svg viewBox="0 0 369.0913536 369.0913536" height="369.0913536" width="369.0913536"><g><svg xmlns="http://www.w3.org/2000/svg" xmlns:xlink="http://www.w3.org/1999/xlink" version="1.1" x="0" y="0" viewBox="5 7 68 68" enable-background="new 0 0 80 80" xml:space="preserve" height="369.0913536" width="369.0913536" class="icon-icon-0" data-fill-palette-color="accent" id="icon-0"><g fill="#13b0eb" data-fill-palette-color="accent"><path fill="#13b0eb" d="M30 54H10C7.6 54 5 51.9 5 49 5 47.2 8 45.4 8.6 45.1L16.1 42.2C16.5 42.1 16.7 42.1 16.7 41.6 15.9 40.6 13.3 37.3 13.3 34.5 13.3 29.9 16.4 26.2 20.3 26.2 24.1 26.2 27.3 29.9 27.3 34.5 27.3 37.4 24.6 40.7 23.8 41.7 23.8 42.3 23.8 42.3 24.2 42.4L31.7 45.3 32.1 45.6C33.8 46.8 35.1 47.9 35.1 49.1V49.3C34.7 50.8 33.3 54 30 54M16.6 44.1L9.3 47C8.5 47.3 7.1 48.6 7 49 7 50.6 8.7 52 10 52H30C32.1 52 32.8 49.6 33 49 32.8 48.6 31.4 47.6 30.9 47.2L30.6 47 23.5 44.3C21.8 43.7 21.7 42.5 21.8 41.2V40.9L22 40.7C22.9 39.7 25.2 36.7 25.2 34.6 25.2 31.2 22.9 28.3 20.2 28.3S15.2 31.2 15.2 34.6C15.2 36.7 17.4 39.7 18.3 40.7L18.5 41V41.3C18.7 42.7 18.1 43.7 16.6 44.1" data-fill-palette-color="accent"></path></g><g fill="#13b0eb" data-fill-palette-color="accent"><path fill="#13b0eb" d="M70 46L62.8 43.2C61.8 42.9 61.6 42.3 61.8 41.1 61.8 41.1 65.3 37.2 65.3 34.3 65.3 30.3 62.6 27 59.3 27S53.3 30.4 53.3 34.3C53.3 37.3 56.6 41.1 56.6 41.1 56.7 42.3 56.3 42.8 55.3 43.1L48 46C47 46.4 45 48 45 49 45 51.2 47.1 53 49 53H69C72.3 53 73 49 73 49 73 48.1 71 46.8 70 46" data-fill-palette-color="accent"></path></g><g fill="#13b0eb" data-fill-palette-color="accent"><path fill="#13b0eb" d="M59.6 19.4C54.4 14 47.5 11 40 11 33 11 26.4 13.6 21.4 18.4L18.6 15.5C24.4 10 32 7 40 7 48.6 7 56.5 10.4 62.4 16.6z" data-fill-palette-color="accent"></path></g><g fill="#13b0eb" data-fill-palette-color="accent"><polygon fill="#13b0eb" points="65,22 52,22 52,18 61,18 61,9 65,9  " data-fill-palette-color="accent"></polygon></g><g fill="#13b0eb" data-fill-palette-color="accent"><path fill="#13b0eb" d="M43 75C34.4 75 26.5 71.6 20.6 65.4L23.5 62.6C28.6 68 35.5 71 43 71 50 71 56.6 68.4 61.6 63.6L64.4 66.5C58.6 72 51 75 43 75" data-fill-palette-color="accent"></path></g><g fill="#13b0eb" data-fill-palette-color="accent"><polygon fill="#13b0eb" points="22,73 18,73 18,60 31,60 31,64 22,64  " data-fill-palette-color="accent"></polygon></g></svg></g></svg></g></svg></g><defs></defs></svg><rect width="395.52" height="185.00939964861615" fill="none" stroke="none" visibility="hidden"></rect></g></svg></g></svg>